<?xml version="1.0" standalone="no"?>
<!DOCTYPE svg PUBLIC "-//W3C//DTD SVG 20010904//EN"
 "http://www.w3.org/TR/2001/REC-SVG-20010904/DTD/svg10.dtd">
<svg version="1.0" xmlns="http://www.w3.org/2000/svg"
 width="500.000000pt" height="500.000000pt" viewBox="0 0 500.000000 500.000000"
 preserveAspectRatio="xMidYMid meet">
<metadata>
Created by potrace 1.14, written by Peter Selinger 2001-2017
</metadata>
<g transform="translate(0.000000,500.000000) scale(0.100000,-0.100000)"
fill="#000000" stroke="none">
<path d="M630 3705 c-157 -35 -257 -91 -370 -204 -68 -68 -94 -104 -127 -171
-94 -191 -105 -366 -37 -580 120 -383 559 -882 1203 -1369 73 -55 136 -101
140 -101 10 0 210 151 341 259 653 535 1026 1042 1047 1421 8 130 -14 237 -74
360 -39 82 -58 107 -137 185 -150 149 -295 210 -496 210 -136 -1 -209 -17
-326 -75 -133 -65 -279 -216 -333 -342 l-18 -42 -36 69 c-69 131 -159 223
-300 308 -117 71 -336 104 -477 72z"/>
<path d="M2890 3380 l0 -230 368 -2 367 -3 3 -902 2 -903 295 0 295 0 0 905 0
905 365 0 365 0 0 230 0 230 -1030 0 -1030 0 0 -230z"/>
</g>
</svg>
